<svg fill="none" xmlns="http://www.w3.org/2000/svg" viewBox="0.55 0.02 37.22 46.95">
<path d="M33.968 21.848C36.4853 24.8347 37.744 28.184 37.744 31.896C37.6587 36.1627 36.1867 39.7467 33.328 42.648C30.512 45.5067 27.0773 46.936 23.024 46.936H6.192C3.20533 46.936 1.456 46.1253 0.944 44.504C0.688 43.7787 0.56 42.6693 0.56 41.176V5.656C0.56 4.632 0.581333 3.88533 0.624 3.416C0.709333 2.94666 0.922667 2.392 1.264 1.752C1.86133 0.599998 3.52533 0.0239983 6.256 0.0239983H22.384C26.3093 0.0239983 29.5947 1.38933 32.24 4.12C35.0133 6.89333 36.4 10.2213 36.4 14.104C36.4 16.92 35.5893 19.5013 33.968 21.848ZM26.416 31.256C26.416 30.232 26.288 29.4213 26.032 28.824C25.8187 28.2267 25.4347 27.8 24.88 27.544C24.0267 27.2027 22.832 27.032 21.296 27.032C19.76 27.032 18.608 26.7333 17.84 26.136C17.072 25.5387 16.688 24.3227 16.688 22.488C16.688 20.6107 17.072 19.3733 17.84 18.776C18.6507 18.1787 19.9733 17.88 21.808 17.88C23.5147 17.88 24.5387 17.432 24.88 16.536C25.008 16.0667 25.072 15.2987 25.072 14.232C25.072 13.1653 24.7093 12.4187 23.984 11.992C23.3013 11.5653 22.256 11.352 20.848 11.352H11.888V35.608H22.384C25.072 35.608 26.416 34.1573 26.416 31.256Z" fill="white"/>
</svg>