<?xml version="1.0" encoding="UTF-8" standalone="no"?>
<svg
   viewBox="0 0 32 32"
   width="64"
   height="64"
   version="1.1"
   id="svg28"
   sodipodi:docname="express-w.svg"
   inkscape:version="1.2.1 (9c6d41e410, 2022-07-14)"
   xmlns:inkscape="http://www.inkscape.org/namespaces/inkscape"
   xmlns:sodipodi="http://sodipodi.sourceforge.net/DTD/sodipodi-0.dtd"
   xmlns="http://www.w3.org/2000/svg"
   xmlns:svg="http://www.w3.org/2000/svg">
  <defs
     id="defs32" />
  <sodipodi:namedview
     id="namedview30"
     pagecolor="#505050"
     bordercolor="#eeeeee"
     borderopacity="1"
     inkscape:showpageshadow="0"
     inkscape:pageopacity="0"
     inkscape:pagecheckerboard="0"
     inkscape:deskcolor="#505050"
     showgrid="false"
     inkscape:zoom="16.046875"
     inkscape:cx="32"
     inkscape:cy="31.968841"
     inkscape:window-width="3440"
     inkscape:window-height="1371"
     inkscape:window-x="0"
     inkscape:window-y="32"
     inkscape:window-maximized="1"
     inkscape:current-layer="svg28" />
  <path
     d="M32 24.795c-1.164.296-1.884.013-2.53-.957l-4.594-6.356-.664-.88-5.365 7.257c-.613.873-1.256 1.253-2.4.944l6.87-9.222-6.396-8.33c1.1-.214 1.86-.105 2.535.88l4.765 6.435 4.8-6.4c.615-.873 1.276-1.205 2.38-.883l-2.48 3.288-3.36 4.375c-.4.5-.345.842.023 1.325L32 24.795zM.008 15.427l.562-2.764C2.1 7.193 8.37 4.92 12.694 8.3c2.527 1.988 3.155 4.8 3.03 7.95H1.48c-.214 5.67 3.867 9.092 9.07 7.346 1.825-.613 2.9-2.042 3.438-3.83.273-.896.725-1.036 1.567-.78-.43 2.236-1.4 4.104-3.45 5.273-3.063 1.75-7.435 1.184-9.735-1.248C1 21.6.434 19.812.18 17.9c-.04-.316-.12-.617-.18-.92q.008-.776.008-1.552zm1.498-.38h12.872c-.084-4.1-2.637-7.012-6.126-7.037-3.83-.03-6.58 2.813-6.746 7.037z"
     id="path26" />
  <path
     style="fill:#ffffff;stroke-width:0.0623174"
     d="M 14.885224,50.47605 C 11.854077,50.237603 8.9278155,49.227591 6.6991237,47.650582 3.8624502,45.643369 1.9349983,42.678262 0.97419024,38.843596 0.83522549,38.288976 0.63457782,37.293455 0.52830655,36.631327 0.42203528,35.9692 0.26670241,35.097708 0.18312239,34.694681 0.0462719,34.03478 0.03115871,33.81099 0.03115871,32.444467 V 30.92703 L 0.62101892,28.033655 C 1.2196831,25.097095 1.4042913,24.413269 1.930768,23.182084 3.3962303,19.755046 6.0032451,16.919832 9.2600927,15.211202 12.423085,13.55181 16.074008,13.049014 19.454655,13.807231 c 2.70153,0.605904 5.27315,2.040346 7.310678,4.077874 2.113345,2.113345 3.436978,4.586797 4.135188,7.727358 0.357143,1.606434 0.472751,2.714937 0.5183,4.969681 l 0.03808,1.884968 -14.26399,0.01571 -14.2639908,0.01571 0.012043,1.184032 c 0.055015,5.408855 2.2007498,9.930364 5.8859108,12.402839 0.5626934,0.377526 1.660589,0.950289 2.327947,1.214472 0.702656,0.278155 2.016197,0.603342 2.913649,0.721317 1.056515,0.138885 3.128879,0.09276 4.221697,-0.09395 3.592627,-0.613832 5.914173,-1.888065 7.673132,-4.211569 0.792543,-1.046914 1.375179,-2.209108 1.952611,-3.894913 0.340636,-0.99448 0.542162,-1.378875 0.870037,-1.659523 0.267283,-0.228784 0.732452,-0.397541 1.090993,-0.395797 0.282916,0.0014 1.069256,0.166535 1.142736,0.240014 0.07675,0.07675 -0.387285,1.926897 -0.740088,2.950797 -0.590466,1.713641 -1.612684,3.531816 -2.655048,4.722421 -2.27112,2.594108 -5.463936,4.212337 -9.2776,4.702207 -0.930505,0.119525 -2.576762,0.164782 -3.461715,0.09517 z m 13.87427,-20.806351 c 0,-1.417788 -0.410059,-3.616803 -0.969803,-5.200747 -0.308849,-0.873969 -0.98852,-2.261294 -1.471372,-3.003323 -2.003718,-3.079239 -5.055674,-5.012035 -8.510207,-5.389494 -1.104476,-0.120681 -2.962599,-0.05091 -4.022017,0.151022 C 9.5593379,17.032806 6.2185105,19.689015 4.4317568,23.66456 3.7008106,25.290923 3.1620769,27.426911 3.05242,29.133398 3.032598,29.44187 3.002441,29.785394 2.985405,29.896787 L 2.95443,30.099318 h 12.902532 12.902532 z"
     id="path207"
     transform="scale(0.5)" />
  <path
     style="fill:#ffffff;stroke-width:0.0623174"
     d="m 33.776047,49.752034 c -0.06855,-0.01382 -0.282564,-0.05576 -0.475588,-0.0932 l -0.350953,-0.06806 2.838358,-3.809992 c 1.561098,-2.095495 4.628552,-6.21258 6.816565,-9.149077 2.188013,-2.936498 3.992966,-5.377554 4.011009,-5.424571 0.01918,-0.04997 -2.609305,-3.526538 -6.327213,-8.368701 -5.787793,-7.537959 -6.34793,-8.287688 -6.225676,-8.332913 0.07389,-0.02733 0.460294,-0.08117 0.858681,-0.119636 1.350927,-0.130443 2.322925,0.17292 3.178543,0.992034 0.318726,0.305128 1.782817,2.238106 5.368279,7.087517 2.711516,3.667381 4.949127,6.673722 4.972469,6.680758 0.02334,0.007 2.257824,-2.948832 4.965516,-6.568595 2.707692,-3.619764 5.114385,-6.785723 5.348206,-7.035466 0.656361,-0.701055 1.216882,-1.010906 2.077417,-1.148377 0.45214,-0.07223 1.381504,0.0081 1.718878,0.148572 l 0.170791,0.07111 -2.445377,3.243137 c -1.344958,1.783726 -4.001755,5.267329 -5.903995,7.741341 -1.902239,2.474012 -3.53717,4.647285 -3.633178,4.829493 -0.251797,0.477871 -0.247545,0.980798 0.0127,1.501769 0.105983,0.212165 3.075976,4.210966 6.671276,8.982215 3.564138,4.729893 6.481043,8.617663 6.482012,8.639488 0.0038,0.08539 -0.87272,0.207297 -1.493857,0.207773 -1.071405,8.22e-4 -1.896024,-0.346434 -2.645413,-1.114004 -0.17468,-0.178918 -2.362139,-3.155873 -4.861022,-6.615455 -5.340355,-7.393466 -6.453245,-8.902257 -6.51574,-8.833655 -0.02546,0.02795 -2.522008,3.401929 -5.54789,7.497742 -3.025882,4.095813 -5.616272,7.58093 -5.756422,7.744703 -0.532246,0.621961 -1.272429,1.092174 -1.982933,1.25969 -0.362534,0.08547 -1.034493,0.113034 -1.325439,0.05436 z"
     id="path209"
     transform="scale(0.5)" />
</svg>
