<svg fill="none" xmlns="http://www.w3.org/2000/svg" viewBox="0.62 0.57 35.57 8.58">
<path d="M3.336 3.012C4.216 3.012 4.852 3.172 5.244 3.492C5.644 3.812 5.844 4.288 5.844 4.92C5.852 5.44 5.744 5.848 5.52 6.144C5.296 6.432 4.94 6.576 4.452 6.576H1.044V5.784H4.188C4.452 5.784 4.624 5.696 4.704 5.52C4.784 5.336 4.824 5.136 4.824 4.92C4.816 4.544 4.704 4.276 4.488 4.116C4.272 3.956 3.904 3.876 3.384 3.876C2.96 3.876 2.624 3.94 2.376 4.068C2.136 4.188 1.964 4.404 1.86 4.716C1.764 5.02 1.716 5.448 1.716 6C1.716 6.624 1.776 7.1 1.896 7.428C2.024 7.756 2.224 7.98 2.496 8.1C2.768 8.22 3.128 8.28 3.576 8.28C3.888 8.28 4.228 8.268 4.596 8.244C4.972 8.212 5.308 8.176 5.604 8.136L5.712 8.82C5.528 8.892 5.3 8.952 5.028 9C4.764 9.048 4.488 9.084 4.2 9.108C3.92 9.132 3.668 9.144 3.444 9.144C2.772 9.144 2.232 9.044 1.824 8.844C1.416 8.636 1.116 8.308 0.924 7.86C0.74 7.404 0.648 6.804 0.648 6.06C0.648 5.292 0.74 4.688 0.924 4.248C1.116 3.8 1.408 3.484 1.8 3.3C2.2 3.108 2.712 3.012 3.336 3.012ZM14.4973 3.012C15.0013 3.012 15.3853 3.148 15.6493 3.42C15.9213 3.692 16.0573 4.092 16.0573 4.62V9H15.0493V4.908C15.0413 4.548 14.9693 4.288 14.8333 4.128C14.6973 3.96 14.4653 3.876 14.1373 3.876C13.9293 3.876 13.7293 3.912 13.5373 3.984C13.3533 4.048 13.1493 4.152 12.9253 4.296C12.7013 4.44 12.4293 4.628 12.1093 4.86L12.0493 4.14C12.4733 3.764 12.8853 3.484 13.2853 3.3C13.6853 3.108 14.0893 3.012 14.4973 3.012ZM8.22131 3.156L8.29331 4.272L8.40131 4.452V9H7.38131V3.156H8.22131ZM10.6693 3.012C11.1653 3.012 11.5453 3.148 11.8093 3.42C12.0733 3.684 12.2093 4.084 12.2173 4.62V9H11.2333V4.908C11.2333 4.532 11.1573 4.268 11.0053 4.116C10.8533 3.956 10.6253 3.876 10.3213 3.876C10.1213 3.876 9.92531 3.908 9.73331 3.972C9.54931 4.036 9.34131 4.14 9.10931 4.284C8.88531 4.428 8.60931 4.62 8.28131 4.86L8.20931 4.14C8.63331 3.764 9.04531 3.484 9.44531 3.3C9.84531 3.108 10.2533 3.012 10.6693 3.012ZM21.037 3.012C21.757 3.012 22.289 3.248 22.633 3.72C22.977 4.184 23.149 4.964 23.149 6.06C23.149 6.564 23.105 7.008 23.017 7.392C22.937 7.776 22.797 8.1 22.597 8.364C22.405 8.62 22.141 8.816 21.805 8.952C21.477 9.08 21.061 9.144 20.557 9.144C20.357 9.144 20.141 9.136 19.909 9.12C19.677 9.104 19.441 9.076 19.201 9.036C18.961 9.004 18.725 8.964 18.493 8.916C18.269 8.86 18.061 8.796 17.869 8.724L18.685 8.028C18.901 8.092 19.113 8.144 19.321 8.184C19.537 8.224 19.745 8.252 19.945 8.268C20.153 8.276 20.349 8.28 20.533 8.28C20.909 8.272 21.209 8.2 21.433 8.064C21.665 7.928 21.833 7.7 21.937 7.38C22.041 7.052 22.093 6.612 22.093 6.06C22.093 5.524 22.053 5.1 21.973 4.788C21.893 4.468 21.749 4.24 21.541 4.104C21.341 3.968 21.053 3.9 20.677 3.9C20.357 3.9 20.053 3.988 19.765 4.164C19.477 4.332 19.145 4.564 18.769 4.86L18.697 4.176C18.937 3.92 19.181 3.708 19.429 3.54C19.685 3.364 19.949 3.232 20.221 3.144C20.493 3.056 20.765 3.012 21.037 3.012ZM18.889 0.599999V2.784C18.889 3.032 18.881 3.26 18.865 3.468C18.857 3.676 18.829 3.888 18.781 4.104L18.877 4.272L18.889 8.772L17.869 8.724V0.599999H18.889ZM27.1368 3.012C28.0168 3.012 28.6528 3.172 29.0448 3.492C29.4448 3.812 29.6448 4.288 29.6448 4.92C29.6528 5.44 29.5448 5.848 29.3208 6.144C29.0968 6.432 28.7408 6.576 28.2528 6.576H24.8448V5.784H27.9888C28.2528 5.784 28.4248 5.696 28.5048 5.52C28.5848 5.336 28.6248 5.136 28.6248 4.92C28.6168 4.544 28.5048 4.276 28.2888 4.116C28.0728 3.956 27.7048 3.876 27.1848 3.876C26.7608 3.876 26.4248 3.94 26.1768 4.068C25.9368 4.188 25.7648 4.404 25.6608 4.716C25.5648 5.02 25.5168 5.448 25.5168 6C25.5168 6.624 25.5768 7.1 25.6968 7.428C25.8248 7.756 26.0248 7.98 26.2968 8.1C26.5688 8.22 26.9288 8.28 27.3768 8.28C27.6888 8.28 28.0288 8.268 28.3968 8.244C28.7728 8.212 29.1088 8.176 29.4048 8.136L29.5128 8.82C29.3288 8.892 29.1008 8.952 28.8288 9C28.5648 9.048 28.2888 9.084 28.0008 9.108C27.7208 9.132 27.4688 9.144 27.2448 9.144C26.5728 9.144 26.0328 9.044 25.6248 8.844C25.2168 8.636 24.9168 8.308 24.7248 7.86C24.5408 7.404 24.4488 6.804 24.4488 6.06C24.4488 5.292 24.5408 4.688 24.7248 4.248C24.9168 3.8 25.2088 3.484 25.6008 3.3C26.0008 3.108 26.5128 3.012 27.1368 3.012ZM33.1261 3.012C33.5101 3.012 33.8901 3.064 34.2661 3.168C34.6421 3.264 35.0021 3.416 35.3461 3.624L35.2861 4.26C34.9101 4.148 34.5781 4.06 34.2901 3.996C34.0021 3.932 33.6941 3.9 33.3661 3.9C33.0301 3.9 32.7581 3.96 32.5501 4.08C32.3501 4.192 32.2021 4.404 32.1061 4.716C32.0101 5.028 31.9621 5.472 31.9621 6.048C31.9621 6.624 32.0061 7.072 32.0941 7.392C32.1901 7.712 32.3381 7.936 32.5381 8.064C32.7381 8.192 32.9941 8.256 33.3061 8.256C33.5381 8.256 33.7461 8.228 33.9301 8.172C34.1221 8.108 34.3221 8.008 34.5301 7.872C34.7461 7.736 34.9981 7.564 35.2861 7.356L35.3821 8.076C35.0621 8.372 34.6981 8.624 34.2901 8.832C33.8821 9.04 33.4421 9.144 32.9701 9.144C32.2341 9.144 31.7061 8.884 31.3861 8.364C31.0741 7.844 30.9181 7.076 30.9181 6.06C30.9181 5.3 30.9981 4.7 31.1581 4.26C31.3181 3.812 31.5621 3.492 31.8901 3.3C32.2181 3.108 32.6301 3.012 33.1261 3.012ZM36.1741 0.599999V9H35.3821L35.2621 7.98L35.1541 7.896V3.888L35.2261 3.708C35.1941 3.484 35.1741 3.268 35.1661 3.06C35.1581 2.852 35.1541 2.632 35.1541 2.4V0.599999H36.1741Z" fill="black"/>
</svg>