<svg version="1.1" id="svg2" xml:space="preserve" sodipodi:docname="osu.eps" xmlns:inkscape="http://www.inkscape.org/namespaces/inkscape" xmlns:sodipodi="http://sodipodi.sourceforge.net/DTD/sodipodi-0.dtd" xmlns="http://www.w3.org/2000/svg" xmlns:svg="http://www.w3.org/2000/svg" viewBox="-0.02 -0.02 1944.5 1944.3"><defs id="defs6"/><sodipodi:namedview id="namedview4" pagecolor="#ffffff" bordercolor="#666666" borderopacity="1.0" inkscape:pageshadow="2" inkscape:pageopacity="0.0" inkscape:pagecheckerboard="0"/><g id="g8" inkscape:groupmode="layer" inkscape:label="ink_ext_XXXXXX" transform="matrix(1.3333333,0,0,-1.3333333,0,1944.2667)"><g id="g10" transform="scale(0.1)"><path d="M 7285.13,731.602 C 10908.9,735.801 13837.1,3651.4 13849.2,7272.56 13861.4,10907.2 10935.7,13846.2 7307.55,13857.3 3670.59,13868.4 730.715,10937.9 724.688,7306.26 718.66,3671.6 3656.77,731.699 7285.13,731.602 Z M 14583.5,7288.35 C 14583.2,3261.3 11312.8,-8.39844 7279.37,0 3243.88,8.5 -8.62891,3267.4 0.015625,7307.34 8.64844,11342.2 3270.86,14593.2 7311.5,14582 c 4027.4,-11.2 7264.1,-3263.4 7272,-7293.65" style="fill:#ffffff;fill-opacity:1;fill-rule:nonzero;stroke:none" id="path12"/><path d="m 4258.12,7331.14 c -2.05,40.62 -3.38,103.12 -8.65,165.28 -12.51,147.53 -39.16,291.79 -106.45,425.77 -67.78,134.94 -174.75,220.87 -323.6,246.83 -64.53,11.25 -132.12,14.62 -197.45,9.78 -168.57,-12.49 -301.31,-89.5 -377.69,-243.8 -35.09,-70.87 -63.03,-147.12 -81.55,-223.99 -50.84,-211.07 -49.54,-426.02 -28.71,-640.66 12.58,-129.62 41.49,-255.92 100.8,-373.66 55.81,-110.77 137.85,-193.26 257.06,-231.92 133.29,-43.23 268.05,-42.48 400.94,3.11 153.9,52.82 236.94,172.01 289.22,317.71 60.75,169.32 73.29,345.82 76.08,545.55 z m 778.2,-35.04 c -3.33,-259.51 -41.87,-526.43 -166.4,-773.85 -190.24,-377.96 -502.56,-588.5 -916.67,-651.31 -249.89,-37.91 -499.14,-30.19 -741.36,47.18 -396.71,126.73 -644.97,403.08 -776.56,791.12 -85.55,252.27 -105.44,512.34 -84.33,776.47 20.67,258.55 83.89,504.83 221.71,727.05 198.32,319.74 490.54,497.78 859.35,551.07 252.58,36.48 504.51,28.45 747.75,-55.78 419.53,-145.26 673.3,-444.67 788.42,-867.96 47.15,-173.34 66.53,-350.44 68.09,-543.99" style="fill:#ffffff;fill-opacity:1;fill-rule:nonzero;stroke:none" id="path14"/><path d="m 9770.23,8716.93 c 255.17,44.09 506.87,43.28 763.07,0.14 0,-14.16 0,-27.58 0,-41 0,-871.08 -0.2,-1742.15 0.8,-2613.24 0,-30.92 -9.5,-42.53 -38.1,-51.28 -397.7,-121.73 -803.16,-182.34 -1219.42,-154.37 -179.4,12.05 -358.78,28.31 -529.73,90.91 -323.2,118.35 -505.65,360.66 -596.62,681.8 -53.56,189.07 -66.36,383.52 -66.71,578.79 -0.88,491.16 -0.32,982.31 -0.24,1473.47 0,11.02 1.05,22.04 1.7,35.11 255.88,43.4 509.9,43.51 767.51,-0.4 0,-18.01 -0.01,-34.03 0,-50.04 0.37,-508.64 -1.54,-1017.31 3.04,-1525.92 0.92,-102.48 18.04,-206.79 42.4,-306.66 49.17,-201.55 184.64,-314.17 389.62,-340.81 147.29,-19.14 293.98,-11.34 439.93,16.99 32.96,6.4 43.7,18.5 43.64,53.38 -1.19,701.12 -0.89,1402.22 -0.89,2103.34 0,16.03 0,32.06 0,49.79" style="fill:#ffffff;fill-opacity:1;fill-rule:nonzero;stroke:none" id="path16"/><path d="m 7319.63,8082.29 c -122.73,35.03 -239.88,74.76 -359.97,101.16 -150.96,33.18 -304.7,41.67 -457.04,4.04 -79.92,-19.74 -151.76,-53.98 -182.54,-139.03 -40.74,-112.56 -1.28,-226.04 108.72,-272.49 120.2,-50.75 246.63,-86.78 370.3,-129.33 108.43,-37.29 219.42,-68.55 324.68,-113.28 279.84,-118.91 418.73,-338.37 439.19,-638.07 17.2,-251.77 -43.09,-478.37 -215.78,-668.28 -149.44,-164.32 -339.76,-259.59 -550.22,-318.46 -229.51,-64.21 -464.03,-65.64 -699.29,-49.2 -203.13,14.2 -398.95,62.52 -589.97,132 -21.11,7.68 -28.8,17.15 -26.28,40.37 20.15,185.27 69.67,362.34 145.38,532.33 2.49,5.6 5.58,10.95 10.48,20.48 14.12,-4.96 27.83,-9.45 41.32,-14.55 218.14,-82.33 441.99,-133.83 676.92,-122.93 108,5.02 213.72,21.6 310.48,74.39 129.62,70.73 177.98,175.14 144.04,307.78 -13.04,50.97 -38.14,95.18 -85.23,117.73 -77.28,37.02 -155.94,72.68 -237.07,99.82 -146.6,49.03 -296.56,88.08 -443,137.58 -108.27,36.59 -205.11,96.39 -293.27,170.21 -123.12,103.13 -181.29,239.37 -201.57,393.79 -22.93,174.69 -13.82,347.2 58.24,511.04 96.57,219.55 271.72,353.21 489.93,436.18 191.02,72.64 390.69,89.3 593.23,85.8 258.47,-4.48 507.95,-55.97 751.59,-139.56 16.09,-5.52 32.51,-8 29.38,-34.09 -21.76,-181.19 -68.1,-355.12 -148.72,-519.34 -1.62,-3.3 -4.02,-6.22 -3.93,-6.09" style="fill:#ffffff;fill-opacity:1;fill-rule:nonzero;stroke:none" id="path18"/><path d="m 12086.9,9812.73 c -18.1,-883.84 -36.2,-1764.44 -54.4,-2648.67 -242.5,-44.49 -483.9,-44.15 -729.8,-0.49 -18.1,882.18 -36.1,1763.79 -54.2,2648.74 279,44.12 555.8,43.15 838.4,0.42" style="fill:#ffffff;fill-opacity:1;fill-rule:nonzero;stroke:none" id="path20"/><path d="m 11664.9,6750 c 124.4,-11.38 247.4,-22.91 370.4,-33.61 22.6,-1.96 32.1,-12.3 35.3,-34.59 35,-245.1 35.4,-490.08 0.2,-735.21 -3.1,-21.7 -11.2,-32.13 -34,-35.47 -177.3,-26.01 -355.3,-33.84 -534,-21.51 -66,4.54 -131.5,14.03 -197.4,20.11 -26.2,2.43 -37.9,14.23 -41.7,40.9 -34.4,242.69 -33.7,485.18 0.7,727.76 3.1,21.85 9.7,36.12 35.8,38.3 121.8,10.22 243.4,22.08 364.7,33.32" style="fill:#ffffff;fill-opacity:1;fill-rule:nonzero;stroke:none" id="path22"/></g></g></svg>