<?xml version="1.0" encoding="UTF-8" standalone="no"?>
<svg
   viewBox="2.67 0 26.62 32"
   version="1.1"
   id="svg303"
   sodipodi:docname="svelte_w.svg"
   inkscape:version="1.2.1 (9c6d41e410, 2022-07-14)"
   xmlns:inkscape="http://www.inkscape.org/namespaces/inkscape"
   xmlns:sodipodi="http://sodipodi.sourceforge.net/DTD/sodipodi-0.dtd"
   xmlns="http://www.w3.org/2000/svg"
   xmlns:svg="http://www.w3.org/2000/svg">
  <defs
     id="defs307" />
  <sodipodi:namedview
     id="namedview305"
     pagecolor="#505050"
     bordercolor="#eeeeee"
     borderopacity="1"
     inkscape:showpageshadow="0"
     inkscape:pageopacity="0"
     inkscape:pagecheckerboard="0"
     inkscape:deskcolor="#505050"
     showgrid="false"
     inkscape:zoom="32.09375"
     inkscape:cx="13.304771"
     inkscape:cy="15.984421"
     inkscape:window-width="3440"
     inkscape:window-height="1371"
     inkscape:window-x="0"
     inkscape:window-y="32"
     inkscape:window-maximized="1"
     inkscape:current-layer="svg303" />
  <path
     d="M27.573 4.229c-2.927-4.25-8.656-5.479-13.068-2.802l-7.464 4.745c-2.042 1.281-3.443 3.365-3.854 5.734-0.365 1.969-0.047 4.005 0.891 5.776-0.641 0.964-1.073 2.052-1.266 3.198-0.427 2.406 0.13 4.885 1.547 6.88 2.932 4.24 8.646 5.474 13.068 2.828l7.469-4.75c2.031-1.281 3.427-3.365 3.839-5.734 0.359-1.964 0.042-3.995-0.896-5.755 1.984-3.115 1.88-7.12-0.266-10.12zM13.76 28.172c-2.401 0.625-4.938-0.318-6.349-2.359-0.865-1.198-1.182-2.677-0.932-4.146l0.146-0.708 0.135-0.438 0.401 0.266c0.88 0.667 1.865 1.146 2.917 1.469l0.271 0.094-0.031 0.266c-0.026 0.37 0.083 0.786 0.297 1.104 0.438 0.63 1.198 0.932 1.932 0.734 0.161-0.052 0.318-0.104 0.453-0.188l7.438-4.745c0.375-0.24 0.615-0.599 0.708-1.026 0.083-0.443-0.026-0.896-0.266-1.255-0.443-0.615-1.198-0.891-1.932-0.708-0.161 0.057-0.333 0.12-0.469 0.203l-2.813 1.786c-2.661 1.583-6.099 0.839-7.865-1.708-0.859-1.198-1.198-2.693-0.938-4.146 0.26-1.438 1.12-2.698 2.365-3.469l7.422-4.745c0.469-0.292 0.974-0.505 1.521-0.667 2.401-0.625 4.932 0.318 6.349 2.349 1 1.406 1.281 3.203 0.76 4.849l-0.135 0.443-0.385-0.266c-0.891-0.651-1.88-1.146-2.932-1.469l-0.266-0.078 0.026-0.266c0.026-0.391-0.083-0.802-0.297-1.12-0.438-0.63-1.198-0.896-1.932-0.708-0.161 0.052-0.318 0.104-0.453 0.188l-7.453 4.786c-0.375 0.25-0.615 0.599-0.693 1.036-0.078 0.427 0.026 0.896 0.266 1.24 0.427 0.63 1.203 0.896 1.922 0.708 0.172-0.052 0.333-0.104 0.464-0.188l2.844-1.813c0.464-0.307 0.984-0.531 1.516-0.677 2.417-0.63 4.938 0.318 6.349 2.359 0.865 1.198 1.198 2.677 0.958 4.13-0.25 1.438-1.099 2.698-2.333 3.469l-7.438 4.734c-0.484 0.292-1.005 0.521-1.547 0.677z"
     id="path301" />
  <path
     style="fill:#ffffff;stroke-width:0.0311587"
     d="M 9.0048685,31.934962 C 5.9613348,31.689226 3.2944676,30.121354 1.5895834,27.575463 0.68901749,26.230654 0.18278794,24.793204 0.04784526,23.197663 -0.05710276,21.956775 0.12390674,20.591557 0.54978938,19.411879 0.67855246,19.055211 1.0235812,18.341402 1.2421611,17.979474 L 1.4203889,17.684361 1.2634043,17.34968 C 0.43441337,15.582323 0.19565274,13.760711 0.54332744,11.855891 0.85057355,10.172568 1.6708921,8.6059429 2.8811186,7.3912313 3.2611733,7.0097683 3.7066245,6.6399065 4.1210049,6.361744 4.3647548,6.1981208 5.2971074,5.6040693 10.555643,2.2618943 11.97201,1.3616919 12.492294,1.0605822 13.039922,0.82414162 c 2.012032,-0.8687036 4.290068,-1.02723284 6.410775,-0.44612802 0.864485,0.23688133 1.843641,0.6645703 2.594094,1.133083 1.497676,0.935009 2.799304,2.3831772 3.58483,3.9884165 0.414579,0.8472011 0.629635,1.4902887 0.791909,2.3680624 0.215465,1.1654945 0.180822,2.5518145 -0.09207,3.6841905 -0.217785,0.903719 -0.590287,1.823874 -1.034769,2.556085 l -0.14034,0.231187 0.163079,0.347521 c 0.55847,1.190095 0.82305,2.282558 0.862107,3.559678 0.05764,1.884642 -0.451337,3.662883 -1.479641,5.169537 -0.547548,0.802257 -1.230553,1.511431 -2.000776,2.077433 -0.490297,0.360297 -8.060956,5.151133 -8.49075,5.373085 -1.622352,0.837803 -3.43984,1.211072 -5.2035055,1.06867 z m 1.0749755,-3.581004 c 0.772113,-0.06701 1.385569,-0.243618 2.103213,-0.605495 0.297771,-0.150153 1.637782,-0.98502 4.222006,-2.630435 2.082181,-1.325756 3.875501,-2.47415 3.985154,-2.551986 0.29447,-0.209027 0.815565,-0.724161 1.059794,-1.047673 0.61886,-0.819754 0.949534,-1.705506 1.029629,-2.757985 0.110389,-1.450551 -0.361082,-2.862987 -1.352392,-4.051505 -1.685944,-2.02134 -4.582803,-2.686261 -6.925547,-1.589632 -0.187322,0.08769 -0.987791,0.575264 -1.945636,1.185119 -1.194127,0.760296 -1.685918,1.056638 -1.84727,1.113124 -1.1213157,0.392547 -2.3231085,-0.434148 -2.3231085,-1.598031 0,-0.422614 0.1554115,-0.799798 0.4498414,-1.091763 0.14104,-0.13986 1.9553321,-1.318599 7.0425771,-4.5755374 0.874316,-0.5597517 1.057957,-0.6422905 1.481291,-0.6657742 0.510319,-0.028309 0.983545,0.1552508 1.343499,0.5211292 0.353261,0.3590749 0.50851,0.7739903 0.489874,1.3092225 l -0.01059,0.304087 0.467381,0.1554103 c 0.928985,0.3088996 1.751198,0.7248626 2.630108,1.3305906 0.264087,0.182003 0.490611,0.319838 0.503386,0.3063 0.03446,-0.03651 0.235883,-0.735566 0.292687,-1.015776 C 22.957714,9.4996976 22.890101,8.4541059 22.592008,7.5559883 22.473873,7.2000617 22.147747,6.541397 21.936331,6.2317429 21.128265,5.0481907 19.966781,4.1984963 18.632911,3.8150958 18.011422,3.6364579 17.440699,3.5679978 16.778968,3.5927089 15.918784,3.6248307 15.174083,3.8147203 14.426485,4.1925621 14.004141,4.406018 6.4743718,9.2088946 6.0759494,9.5189658 5.7618324,9.7634265 5.2889211,10.256956 5.0551444,10.584276 c -0.1992756,0.279015 -0.4392142,0.718471 -0.5849426,1.071346 -0.4068225,0.985101 -0.4833919,2.259172 -0.2010743,3.345754 0.4076198,1.568843 1.5628635,2.986182 3.0347744,3.723287 0.8569846,0.429161 1.6895345,0.623221 2.6784673,0.624328 0.9798898,0.0011 1.8340818,-0.197718 2.6617258,-0.619521 0.157724,-0.08038 0.945778,-0.565084 1.751231,-1.077113 0.805453,-0.512029 1.555599,-0.969483 1.666991,-1.016565 0.654719,-0.276723 1.362194,-0.142371 1.894493,0.359773 0.309205,0.291689 0.485137,0.652261 0.524405,1.074769 0.03803,0.40914 -0.136389,0.888587 -0.432597,1.189163 -0.219047,0.222277 -7.704356,5.005622 -8.024171,5.127696 -0.2538777,0.0969 -0.6800831,0.129955 -0.9508479,0.07373 C 8.5807966,24.358607 8.069411,23.963675 7.8569852,23.521366 7.709454,23.21418 7.672057,23.042109 7.6682438,22.652938 l -0.0032,-0.326613 -0.4673807,-0.159326 C 6.1575843,21.812446 5.4549515,21.452229 4.533593,20.801215 4.3022395,20.637745 4.1044767,20.503646 4.0941202,20.503216 c -0.031033,-0.0013 -0.1558556,0.452153 -0.252648,0.917794 -0.1104934,0.531552 -0.1504311,1.371898 -0.089072,1.874194 0.1524795,1.248218 0.6763279,2.317855 1.6059641,3.279191 0.8487727,0.877715 1.9225347,1.462426 3.0989005,1.687489 0.6043224,0.115619 1.055972,0.141248 1.6225792,0.09207 z"
     id="path378"
     transform="translate(2.67)" />
</svg>
